<?xml version="1.0" standalone="no"?>
<!DOCTYPE svg PUBLIC "-//W3C//DTD SVG 20010904//EN"
 "http://www.w3.org/TR/2001/REC-SVG-20010904/DTD/svg10.dtd">
<svg version="1.0" xmlns="http://www.w3.org/2000/svg"
 width="711.000000pt" height="400.000000pt" viewBox="0 0 711.000000 400.000000"
 preserveAspectRatio="xMidYMid meet">

<g transform="translate(0.000000,400.000000) scale(0.100000,-0.100000)"
fill="#000000" stroke="none">
<path d="M4010 3509 c-62 -12 -139 -52 -193 -100 -57 -50 -114 -160 -126 -244
-5 -33 -9 -47 -10 -30 -3 59 -21 2 -21 -66 l0 -67 -37 -7 c-41 -7 -109 -41
-190 -94 -29 -19 -65 -35 -80 -36 -53 -5 -160 -65 -212 -120 -57 -60 -79 -117
-64 -167 9 -32 7 -36 -76 -124 -47 -50 -111 -129 -142 -175 -71 -105 -159
-274 -170 -325 -4 -22 -13 -61 -19 -89 -5 -27 -17 -55 -26 -61 -12 -9 -12 -13
-2 -17 7 -3 2 -6 -11 -6 -26 -1 -145 -64 -157 -83 -4 -6 -3 -8 4 -4 6 3 0 -13
-13 -36 -32 -59 -40 -122 -21 -181 8 -27 13 -54 10 -60 -2 -7 6 -23 17 -37
l21 -25 -17 28 c-24 41 -15 41 15 2 39 -52 93 -78 174 -83 63 -3 77 -1 125 25
72 38 107 83 128 167 16 65 16 70 -3 125 -21 63 -69 122 -114 141 -17 7 -30
13 -30 14 0 15 32 143 45 176 9 25 19 54 22 65 4 11 14 31 25 44 10 13 18 32
18 42 0 23 82 142 157 230 57 67 82 86 68 52 -35 -86 -44 -200 -21 -266 8 -21
12 -55 9 -76 -4 -30 -1 -43 16 -60 11 -11 29 -21 39 -21 9 -1 33 -23 52 -51
44 -63 129 -133 242 -200 80 -48 90 -57 113 -107 14 -30 49 -78 78 -108 43
-42 58 -65 71 -112 21 -76 21 -79 -9 -86 -14 -4 -25 -11 -25 -16 0 -23 -48 -8
-80 25 -49 50 -97 63 -146 39 -95 -47 -56 -194 52 -194 41 0 44 -2 44 -27 0
-16 7 -39 15 -53 24 -41 36 -72 30 -78 -10 -10 -84 49 -131 105 -98 115 -163
174 -232 206 -62 30 -75 32 -172 32 -102 0 -112 -2 -266 -54 l-161 -55 -99 18
c-54 9 -121 21 -148 26 -53 10 -98 -5 -110 -36 -11 -28 30 -98 72 -121 33 -19
51 -21 157 -19 130 2 185 17 390 102 118 49 195 55 280 24 52 -20 77 -40 193
-156 73 -74 144 -137 157 -140 14 -3 25 -10 25 -14 0 -4 -35 -26 -78 -49 -104
-53 -243 -93 -313 -89 -50 3 -54 5 -54 28 0 18 4 24 15 20 38 -11 90 -3 113
18 13 12 28 22 34 22 6 0 23 14 37 31 23 27 26 39 26 111 0 80 0 81 -38 118
-43 43 -93 56 -174 45 -39 -6 -59 -15 -79 -36 -25 -26 -30 -28 -70 -21 -183
32 -357 -73 -336 -202 7 -43 62 -123 101 -147 43 -26 139 -26 189 1 44 24 43
24 45 8 4 -70 12 -103 26 -114 12 -8 49 -10 124 -7 185 8 369 69 508 168 l64
46 0 -36 c0 -49 44 -95 92 -95 39 0 98 33 98 55 0 9 7 18 15 21 33 13 14 73
-24 75 -14 1 13 5 61 10 48 5 113 17 145 28 32 11 60 18 62 16 2 -3 -3 -32
-12 -67 -19 -75 -12 -93 43 -108 64 -17 101 -2 127 51 20 40 21 49 10 78 -9
26 -9 33 2 40 7 5 16 23 20 42 6 32 8 33 126 66 161 45 278 65 309 53 88 -33
38 -152 -141 -336 -78 -81 -93 -92 -130 -97 -63 -8 -116 -37 -135 -76 -9 -19
-30 -48 -46 -65 -37 -39 -67 -132 -58 -179 8 -42 38 -82 76 -102 61 -31 262
-9 277 31 4 10 26 14 82 14 81 0 183 20 232 46 47 24 108 84 130 125 33 67 21
147 -29 185 -8 5 -12 18 -10 29 2 14 -8 23 -47 38 -67 25 -135 39 -163 32 -19
-5 -14 7 36 82 98 146 105 164 109 279 3 90 2 102 -16 118 -15 14 -29 17 -53
12 -18 -4 -42 -7 -53 -8 -94 -4 -227 -23 -331 -48 -70 -16 -127 -30 -129 -30
-2 0 1 16 5 34 9 39 5 46 -22 46 -20 0 -24 15 -7 26 20 12 -7 94 -32 94 -4 0
-15 -8 -25 -17 -16 -17 -17 -15 -10 27 5 25 10 88 13 140 6 124 11 157 34 206
23 48 24 88 5 146 -18 54 -16 74 12 118 52 83 53 229 2 381 -16 50 -30 103
-30 119 0 26 -38 70 -60 70 -4 0 -23 14 -41 31 -33 31 -169 100 -269 138 -41
15 -61 30 -74 53 -19 33 -19 33 0 16 76 -67 248 -96 359 -61 33 11 80 32 105
48 25 16 51 30 59 31 22 4 59 53 93 123 29 59 31 73 32 170 1 96 -2 113 -28
176 -23 55 -44 84 -98 137 -79 77 -127 103 -218 117 -74 12 -88 12 -150 0z m1
-155 l34 -35 -39 -32 c-42 -34 -86 -115 -86 -159 0 -27 -2 -28 -47 -28 -79 0
-93 7 -93 46 0 80 57 172 140 228 36 24 52 20 91 -20z m-324 -321 c-3 -10 -5
-2 -5 17 0 19 2 27 5 18 2 -10 2 -26 0 -35z m72 -168 l33 -50 -40 45 -40 44
-41 -27 c-37 -25 -41 -25 -41 -9 0 12 14 25 40 37 30 13 39 23 35 34 -4 9 -9
30 -11 46 -3 18 2 10 13 -20 10 -27 33 -72 52 -100z m-76 86 c7 -7 -4 -17 -35
-32 -45 -21 -45 -22 -41 -64 4 -30 1 -46 -12 -58 -52 -53 -108 32 -76 116 18
47 129 73 164 38z m-191 -76 c-3 -33 2 -55 17 -81 12 -20 21 -37 19 -38 -35
-21 -57 -23 -71 -8 -36 42 -32 104 10 146 14 14 26 26 27 26 1 0 0 -20 -2 -45z
m-80 -47 c-2 -20 5 -49 17 -72 15 -29 18 -44 10 -57 -5 -11 -14 -19 -19 -19
-23 0 -60 60 -60 98 0 20 36 82 48 82 4 0 6 -15 4 -32z m-65 -26 c-8 -32 -7
-46 9 -78 10 -21 29 -43 41 -49 40 -17 40 -107 0 -157 -16 -20 -37 -24 -37 -8
0 18 -82 50 -128 50 -23 0 -58 -7 -77 -14 -32 -14 -36 -13 -45 4 -5 10 -10 41
-10 69 0 42 5 56 31 85 17 20 34 35 37 34 4 -2 21 12 39 30 34 35 56 42 46 15
-4 -10 9 -1 29 20 19 20 44 37 55 37 19 0 19 -3 10 -38z m471 -54 c-26 -116
-148 -168 -199 -85 -16 27 -19 29 -19 11 0 -11 9 -29 20 -39 27 -24 25 -32
-12 -51 -37 -19 -121 -15 -144 7 -7 8 -16 29 -20 46 -5 27 -1 37 25 63 24 25
38 31 63 28 45 -4 50 -39 11 -80 -22 -24 -24 -28 -8 -22 36 13 55 36 55 70 0
27 5 34 31 43 17 6 36 8 42 4 5 -3 7 -2 4 4 -9 14 135 63 149 52 8 -7 9 -22 2
-51z m29 -52 c-13 -83 -99 -138 -171 -110 -29 11 -16 24 24 24 32 0 48 7 80
36 22 20 43 47 46 60 10 38 27 29 21 -10z m-110 -133 l54 6 40 -65 c45 -70
105 -128 154 -145 31 -11 32 -13 27 -60 -2 -28 1 -62 8 -79 15 -35 58 -73 73
-63 6 3 7 1 3 -5 -8 -13 -35 -16 -61 -6 -9 4 -25 24 -36 45 -25 50 -134 159
-159 159 -10 0 -21 -9 -25 -19 -3 -12 -19 -21 -42 -26 -21 -4 -51 -14 -67 -22
-17 -9 -48 -16 -70 -17 -35 -1 -40 -4 -47 -30 -7 -27 0 -82 21 -165 7 -27 5
-39 -8 -55 -23 -29 -52 -30 -52 -2 -1 61 -64 141 -121 153 -22 4 -29 13 -38
49 -6 24 -22 69 -35 98 -23 51 -23 55 -7 70 9 8 23 32 30 52 8 21 24 49 37 63
13 14 24 33 24 43 0 22 19 33 33 19 6 -6 35 -11 64 -11 30 0 53 -5 53 -10 0
-6 13 -4 30 5 33 17 40 28 13 19 -15 -5 -15 -4 -4 4 10 7 21 7 35 0 11 -6 43
-8 73 -5z m-432 -37 c42 -18 62 -56 49 -93 -13 -39 -34 -41 -34 -4 0 66 -110
83 -170 26 -31 -30 -46 -21 -36 21 14 55 115 81 191 50z m-205 -13 c0 -5 -33
-42 -74 -84 -84 -88 -164 -204 -230 -335 -40 -81 -65 -156 -105 -324 -10 -44
-10 -43 -6 22 8 127 95 338 200 488 46 66 200 240 211 240 2 0 4 -3 4 -7z
m830 -249 c17 -15 42 -48 55 -75 14 -26 33 -50 43 -53 44 -14 62 -117 27 -156
-32 -35 -98 -60 -158 -60 -42 0 -71 -7 -107 -25 -52 -26 -76 -25 -85 6 -4 10
-20 32 -37 49 l-30 30 36 36 36 36 -25 30 c-19 22 -25 41 -25 76 1 73 38 105
117 101 34 -2 47 1 54 14 15 26 63 21 99 -9z m174 -344 c58 -69 86 -256 67
-435 -12 -107 -38 -239 -53 -267 -9 -19 -59 -23 -128 -12 l-36 6 -1 101 c-2
203 -72 424 -163 516 l-31 30 28 18 c17 12 52 19 98 21 59 3 79 0 116 -18 32
-17 40 -18 31 -7 -8 9 -22 19 -33 22 -29 9 -23 21 19 38 51 22 57 21 86 -13z
m88 20 c41 -12 104 -75 114 -115 11 -45 -2 -114 -27 -141 -13 -14 -17 -24 -10
-24 9 0 11 -6 6 -17 -4 -10 -11 -79 -16 -153 -5 -79 -17 -164 -29 -205 -11
-38 -18 -56 -15 -40 13 77 17 416 6 477 -18 93 -40 159 -68 196 -26 35 -21 38
39 22z m-387 -230 c28 -87 45 -206 45 -325 0 -66 -5 -127 -10 -135 -12 -19
-12 -23 -14 95 -4 149 -13 194 -42 201 -32 8 -72 57 -79 97 -3 18 1 54 9 82 9
28 16 66 16 85 l0 35 30 -45 c16 -25 37 -65 45 -90z m-1068 88 c-3 -8 -6 -5
-6 6 -1 11 2 17 5 13 3 -3 4 -12 1 -19z m-139 -106 l24 -18 -31 -33 c-17 -18
-36 -50 -42 -72 -7 -21 -15 -39 -18 -39 -16 0 -50 32 -46 43 2 6 6 24 9 39 6
26 61 98 75 98 3 0 16 -8 29 -18z m902 -432 c0 -5 -4 -10 -10 -10 -5 0 -10 5
-10 10 0 6 5 10 10 10 6 0 10 -4 10 -10z m790 0 c0 -5 -5 -10 -11 -10 -5 0 -7
5 -4 10 3 6 8 10 11 10 2 0 4 -4 4 -10z m-1861 -24 c28 -10 31 -14 17 -19 -13
-5 -15 -11 -7 -26 8 -15 7 -20 -5 -25 -10 -4 -13 -13 -9 -26 8 -24 -3 -25 -52
-5 -73 31 -93 70 -51 99 26 19 60 19 107 2z m1221 -61 c5 -6 -7 -17 -26 -26
-38 -18 -40 -16 -19 21 8 14 15 36 15 50 2 24 2 24 12 -5 6 -16 14 -34 18 -40z
m50 40 c0 -8 -7 -15 -15 -15 -13 0 -14 3 -3 15 16 18 18 18 18 0z m550 6 c0
-6 -4 -13 -10 -16 -5 -3 -10 1 -10 9 0 9 5 16 10 16 6 0 10 -4 10 -9z m-350
-22 c0 -6 -7 -17 -15 -25 -8 -9 -15 -34 -16 -57 0 -38 -1 -40 -10 -17 -11 28
-5 76 12 97 14 16 29 17 29 2z m270 -28 c0 -12 -7 -18 -17 -17 -14 1 -18 -7
-19 -32 -1 -44 -14 -54 -14 -11 0 35 23 79 41 79 5 0 9 -8 9 -19z m-923 -44
c16 -16 16 -17 0 -17 -9 0 -17 4 -17 9 0 5 -19 7 -42 4 -32 -3 -39 -2 -28 6
12 9 9 11 -15 11 -24 0 -27 -2 -15 -11 11 -8 7 -9 -17 -4 -23 5 -33 3 -33 -6
0 -7 -3 -9 -7 -6 -3 4 -15 0 -25 -10 -11 -10 -18 -12 -18 -4 0 6 15 20 33 32
41 26 157 24 184 -4z m426 10 c4 3 7 2 7 -4 0 -6 -7 -13 -15 -17 -8 -3 -15
-13 -15 -22 0 -14 -2 -14 -16 -3 -13 10 -17 10 -25 -2 -7 -11 -9 -9 -9 8 0 27
38 57 55 43 7 -5 15 -7 18 -3z m-89 -77 c10 -13 9 -13 -6 -1 -10 7 -17 23 -17
35 1 20 2 20 6 1 3 -11 10 -27 17 -35z m-375 36 c-2 -2 -33 -6 -69 -9 -40 -4
-57 -2 -45 3 19 8 123 14 114 6z m-284 -16 c-27 -4 -54 -5 -58 -3 -18 10 -105
-19 -110 -36 -2 -10 -20 -25 -39 -34 -40 -19 -51 -30 -67 -72 l-11 -30 5 34
c9 62 67 118 145 142 14 4 61 7 105 7 73 -1 76 -1 30 -8z m135 -15 c-7 -9 -15
-13 -17 -11 -7 7 7 26 19 26 6 0 6 -6 -2 -15z m575 5 c3 -5 1 -10 -4 -10 -6 0
-11 5 -11 10 0 6 2 10 4 10 3 0 8 -4 11 -10z m-518 -23 c-31 -6 -55 -18 -70
-36 -12 -14 -29 -25 -37 -23 -10 2 -16 -7 -17 -29 -2 -26 0 -29 12 -19 12 10
15 9 15 -8 0 -21 -23 -46 -33 -35 -4 3 -7 18 -7 32 -1 21 -2 23 -10 10 -6 -10
-6 -28 0 -48 5 -17 7 -32 4 -32 -2 -1 -8 -2 -14 -3 -5 0 -18 -8 -28 -17 -28
-24 -53 -30 -68 -18 -8 6 -14 8 -14 3 0 -5 -6 2 -13 15 -9 18 -21 24 -50 26
-56 3 -75 45 -41 93 22 32 83 28 101 -7 l12 -25 18 32 c10 17 28 34 40 37 13
3 23 9 23 14 0 5 18 12 40 16 22 4 40 10 40 15 0 4 12 8 27 8 15 0 29 4 30 9
2 4 22 6 46 4 l42 -5 -48 -9z m132 -4 c23 -26 31 -67 16 -81 -4 -4 -10 0 -13
8 -3 8 -20 30 -38 48 -28 28 -30 33 -16 42 24 13 26 13 51 -17z m-309 7 c-106
-16 -192 -56 -229 -109 -23 -32 -28 -90 -10 -123 7 -13 7 -18 1 -14 -22 13
-34 74 -22 111 25 75 154 145 265 143 l50 -1 -55 -7z m242 -38 c4 -4 -12 -6
-35 -4 -46 5 -46 1 -2 -22 l30 -16 -40 0 c-22 0 -51 -7 -63 -16 -13 -9 -26
-13 -30 -9 -10 10 21 59 48 73 24 12 77 9 92 -6z m1004 -119 c36 0 39 -7 25
-68 -12 -53 -14 -55 -39 -49 -51 12 -56 25 -36 90 9 33 19 52 21 43 2 -10 14
-16 29 -16z m-358 -18 c-3 -3 -9 2 -12 12 -6 14 -5 15 5 6 7 -7 10 -15 7 -18z
m419 -27 c-3 -8 -6 -5 -6 6 -1 11 2 17 5 13 3 -3 4 -12 1 -19z m-488 -6 c5 -9
13 -34 19 -54 10 -36 9 -38 -14 -38 -34 0 -64 34 -64 73 0 28 4 33 25 35 15 1
28 -5 34 -16z m91 -17 c0 -8 -4 -15 -10 -15 -5 0 -10 7 -10 15 0 8 5 15 10 15
6 0 10 -7 10 -15z m-890 -9 c0 -2 -7 -6 -15 -10 -8 -3 -15 -1 -15 4 0 6 7 10
15 10 8 0 15 -2 15 -4z m1945 -110 c19 -8 35 -18 35 -21 0 -3 -9 -1 -19 5 -26
13 -94 13 -86 0 4 -6 10 -8 14 -6 4 3 13 1 21 -5 11 -6 7 -9 -15 -9 -37 -1
-112 -21 -142 -38 -15 -8 -23 -9 -23 -2 0 5 6 10 14 10 7 0 16 9 19 20 3 12 0
20 -7 20 -20 0 -98 -71 -93 -85 3 -6 -1 -12 -9 -12 -24 0 -15 19 29 62 68 65
187 92 262 61z m61 -72 c45 -22 74 -59 74 -97 0 -39 -11 -28 -16 15 -2 18 -10
38 -18 46 -47 47 -191 45 -299 -6 -74 -34 -91 -35 -24 -1 108 56 220 73 283
43z m-403 -1 c10 -9 -25 -32 -48 -32 -15 0 -13 3 10 14 l30 13 -31 1 c-18 1
-41 -8 -54 -19 -13 -11 -35 -20 -50 -20 -14 0 -31 -5 -38 -12 -8 -8 -12 -8
-12 -1 0 16 25 33 67 49 40 14 115 19 126 7z m20 -39 c-3 -9 -1 -19 6 -23 7
-5 -3 -15 -26 -27 -30 -15 -49 -18 -88 -13 -45 5 -47 6 -15 9 19 2 40 4 46 4
6 1 24 16 39 34 29 34 48 42 38 16z m-93 -25 c-70 -18 -105 -32 -125 -49 -11
-9 -33 -26 -49 -36 -29 -18 -29 -18 -18 2 6 11 18 26 26 33 29 24 131 61 166
60 l35 -1 -35 -9z m-3 -70 c-9 -5 -21 -8 -25 -5 -19 11 -107 -19 -150 -51 -39
-30 -43 -31 -22 -8 42 46 106 73 175 74 32 0 36 -2 22 -10z"/>
<path d="M3237 2673 c-11 -20 -17 -63 -8 -63 10 0 26 58 18 66 -3 3 -7 2 -10
-3z"/>
<path d="M3180 2634 c0 -21 4 -33 10 -29 6 3 10 19 10 36 0 16 -4 29 -10 29
-5 0 -10 -16 -10 -36z"/>
<path d="M3130 2626 c0 -20 11 -46 19 -46 4 0 6 14 3 30 -4 30 -22 43 -22 16z"/>
<path d="M3673 2529 c-7 -7 -13 -26 -13 -41 0 -32 28 -108 40 -108 5 0 10 28
12 62 2 44 -1 67 -12 81 -12 14 -17 16 -27 6z m27 -59 c0 -22 -4 -40 -9 -40
-12 0 -25 56 -16 70 13 22 25 8 25 -30z"/>
<path d="M3773 2478 c-15 -19 -23 -72 -14 -87 12 -18 53 42 49 71 -4 26 -21
34 -35 16z m27 -15 c-1 -5 -7 -19 -15 -33 l-14 -25 -1 26 c0 14 3 29 7 32 9 9
23 9 23 0z"/>
<path d="M3880 2255 c-14 -17 -1 -66 26 -96 15 -16 13 -18 -20 -28 -32 -8 -40
-7 -62 14 -14 13 -23 28 -20 34 8 13 -3 38 -20 45 -28 11 -44 -5 -44 -46 0
-30 7 -46 29 -68 16 -16 26 -32 22 -35 -3 -4 21 7 53 24 32 17 71 31 87 31 24
0 29 4 29 24 0 13 -7 29 -15 36 -8 7 -15 20 -15 30 0 9 -8 24 -19 34 -16 15
-20 15 -31 1z"/>
<path d="M3900 2035 c-5 -14 -21 -27 -36 -31 l-27 -7 27 -24 c15 -12 35 -23
45 -23 30 0 61 32 71 73 6 28 5 35 -3 28 -19 -15 -62 -18 -59 -3 4 21 -8 13
-18 -13z"/>
<path d="M4110 1686 c0 -2 9 -6 20 -9 11 -3 18 -1 14 4 -5 9 -34 13 -34 5z"/>
<path d="M4010 1647 c-14 -12 -39 -32 -55 -45 -20 -14 -23 -20 -10 -15 31 10
74 42 85 64 13 24 11 24 -20 -4z"/>
<path d="M4095 1603 c-12 -2 -34 -15 -50 -28 l-30 -24 49 24 c41 21 71 39 55
34 -2 -1 -13 -4 -24 -6z"/>
<path d="M3163 1724 c-20 -10 -33 -24 -33 -35 0 -29 30 -23 79 16 l44 35 -29
0 c-16 0 -44 -8 -61 -16z m22 -19 c-33 -27 -45 -31 -45 -15 0 6 15 17 33 25
45 20 47 18 12 -10z"/>
<path d="M3380 1726 c0 -3 21 -17 48 -32 26 -15 59 -41 74 -58 17 -20 28 -25
28 -16 0 8 -4 20 -8 26 -8 12 -142 87 -142 80z"/>
<path d="M3223 1635 c-46 -49 -58 -97 -27 -109 20 -8 44 10 44 33 0 9 11 40
25 69 30 65 16 67 -42 7z m11 -42 c-18 -59 -34 -78 -34 -39 0 23 33 86 45 86
2 0 -3 -21 -11 -47z"/>
<path d="M3550 1564 c0 -5 7 -18 15 -28 8 -11 15 -16 15 -10 0 5 -7 18 -15 28
-8 11 -15 16 -15 10z"/>
</g>
</svg>
